TITLE ""
FILE "P1Q_t_1388-1397.mp3" MP3
  TRACK 01 AUDIO
    TITLE "P1Q_t_1388-1397_01"
    INDEX 01 00:00:00
  TRACK 02 AUDIO
    TITLE "P1Q_t_1388-1397_02"
    INDEX 01 00:00:08
  TRACK 03 AUDIO
    TITLE "P1Q_t_1388-1397_03"
    INDEX 01 00:01:27
  TRACK 04 AUDIO
    TITLE "P1Q_t_1388-1397_04"
    INDEX 01 00:01:49
  TRACK 05 AUDIO
    TITLE "P1Q_t_1388-1397_05"
    INDEX 01 00:03:03
  TRACK 06 AUDIO
    TITLE "P1Q_t_1388-1397_06"
    INDEX 01 00:03:22
  TRACK 07 AUDIO
    TITLE "P1Q_t_1388-1397_07"
    INDEX 01 00:07:46
  TRACK 08 AUDIO
    TITLE "P1Q_t_1388-1397_08"
    INDEX 01 00:08:14
  TRACK 09 AUDIO
    TITLE "P1Q_t_1388-1397_09"
    INDEX 01 00:09:19
  TRACK 10 AUDIO
    TITLE "P1Q_t_1388-1397_10"
    INDEX 01 00:09:39
  TRACK 11 AUDIO
    TITLE "P1Q_t_1388-1397_11"
    INDEX 01 00:12:04
  TRACK 12 AUDIO
    TITLE "P1Q_t_1388-1397_12"
    INDEX 01 00:12:23
  TRACK 13 AUDIO
    TITLE "P1Q_t_1388-1397_13"
    INDEX 01 00:18:20
  TRACK 14 AUDIO
    TITLE "P1Q_t_1388-1397_14"
    INDEX 01 00:18:63
  TRACK 15 AUDIO
    TITLE "P1Q_t_1388-1397_15"
    INDEX 01 00:19:72
  TRACK 16 AUDIO
    TITLE "P1Q_t_1388-1397_16"
    INDEX 01 00:20:21
  TRACK 17 AUDIO
    TITLE "P1Q_t_1388-1397_17"
    INDEX 01 00:23:07
  TRACK 18 AUDIO
    TITLE "P1Q_t_1388-1397_18"
    INDEX 01 00:23:29
  TRACK 19 AUDIO
    TITLE "P1Q_t_1388-1397_19"
    INDEX 01 00:27:52
  TRACK 20 AUDIO
    TITLE "P1Q_t_1388-1397_20"
    INDEX 01 00:28:22
  TRACK 21 AUDIO
    TITLE "P1Q_t_1388-1397_21"
    INDEX 01 00:29:59
  TRACK 22 AUDIO
    TITLE "P1Q_t_1388-1397_22"
    INDEX 01 00:30:04
  TRACK 23 AUDIO
    TITLE "P1Q_t_1388-1397_23"
    INDEX 01 00:31:62
  TRACK 24 AUDIO
    TITLE "P1Q_t_1388-1397_24"
    INDEX 01 00:32:06
  TRACK 25 AUDIO
    TITLE "P1Q_t_1388-1397_25"
    INDEX 01 00:37:43
  TRACK 26 AUDIO
    TITLE "P1Q_t_1388-1397_26"
    INDEX 01 00:38:13
  TRACK 27 AUDIO
    TITLE "P1Q_t_1388-1397_27"
    INDEX 01 00:39:24
  TRACK 28 AUDIO
    TITLE "P1Q_t_1388-1397_28"
    INDEX 01 00:39:46
  TRACK 29 AUDIO
    TITLE "P1Q_t_1388-1397_29"
    INDEX 01 00:43:20
  TRACK 30 AUDIO
    TITLE "P1Q_t_1388-1397_30"
    INDEX 01 00:43:40
  TRACK 31 AUDIO
    TITLE "P1Q_t_1388-1397_31"
    INDEX 01 00:46:73
  TRACK 32 AUDIO
    TITLE "P1Q_t_1388-1397_32"
    INDEX 01 00:47:47
  TRACK 33 AUDIO
    TITLE "P1Q_t_1388-1397_33"
    INDEX 01 00:48:68
  TRACK 34 AUDIO
    TITLE "P1Q_t_1388-1397_34"
    INDEX 01 00:49:13
  TRACK 35 AUDIO
    TITLE "P1Q_t_1388-1397_35"
    INDEX 01 00:51:55
  TRACK 36 AUDIO
    TITLE "P1Q_t_1388-1397_36"
    INDEX 01 00:51:74
  TRACK 37 AUDIO
    TITLE "P1Q_t_1388-1397_37"
    INDEX 01 00:56:56
  TRACK 38 AUDIO
    TITLE "P1Q_t_1388-1397_38"
    INDEX 01 00:57:26
  TRACK 39 AUDIO
    TITLE "P1Q_t_1388-1397_39"
    INDEX 01 00:58:55
  TRACK 40 AUDIO
    TITLE "P1Q_t_1388-1397_40"
    INDEX 01 00:59:01
  TRACK 41 AUDIO
    TITLE "P1Q_t_1388-1397_41"
    INDEX 01 01:03:05
  TRACK 42 AUDIO
    TITLE "P1Q_t_1388-1397_42"
    INDEX 01 01:03:25
  TRACK 43 AUDIO
    TITLE "P1Q_t_1388-1397_43"
    INDEX 01 01:08:22
  TRACK 44 AUDIO
    TITLE "P1Q_t_1388-1397_44"
    INDEX 01 01:08:67
  TRACK 45 AUDIO
    TITLE "P1Q_t_1388-1397_45"
    INDEX 01 01:10:13
  TRACK 46 AUDIO
    TITLE "P1Q_t_1388-1397_46"
    INDEX 01 01:10:32
  TRACK 47 AUDIO
    TITLE "P1Q_t_1388-1397_47"
    INDEX 01 01:11:61
  TRACK 48 AUDIO
    TITLE "P1Q_t_1388-1397_48"
    INDEX 01 01:12:06
  TRACK 49 AUDIO
    TITLE "P1Q_t_1388-1397_49"
    INDEX 01 01:16:47
  TRACK 50 AUDIO
    TITLE "P1Q_t_1388-1397_50"
    INDEX 01 01:17:17
  TRACK 51 AUDIO
    TITLE "P1Q_t_1388-1397_51"
    INDEX 01 01:18:30
  TRACK 52 AUDIO
    TITLE "P1Q_t_1388-1397_52"
    INDEX 01 01:18:50
  TRACK 53 AUDIO
    TITLE "P1Q_t_1388-1397_53"
    INDEX 01 01:20:09
  TRACK 54 AUDIO
    TITLE "P1Q_t_1388-1397_54"
    INDEX 01 01:20:31
  TRACK 55 AUDIO
    TITLE "P1Q_t_1388-1397_55"
    INDEX 01 01:23:63
  TRACK 56 AUDIO
    TITLE "P1Q_t_1388-1397_56"
    INDEX 01 01:24:37
  TRACK 57 AUDIO
    TITLE "P1Q_t_1388-1397_57"
    INDEX 01 01:25:54
  TRACK 58 AUDIO
    TITLE "P1Q_t_1388-1397_58"
    INDEX 01 01:25:73
  TRACK 59 AUDIO
    TITLE "P1Q_t_1388-1397_59"
    INDEX 01 01:28:40
  TRACK 60 AUDIO
    TITLE "P1Q_t_1388-1397_60"
    INDEX 01 01:28:60
  TRACK 61 AUDIO
    TITLE "P1Q_t_1388-1397_61"
    INDEX 01 01:33:67
